<svg xmlns="http://www.w3.org/2000/svg" version="1.1" xmlns:xlink="http://www.w3.org/1999/xlink" xmlns:svgjs="http://svgjs.dev/svgjs" width="32" height="32"><svg width="32" height="32" viewBox="0 0 32 32" fill="none" xmlns="http://www.w3.org/2000/svg">
<path d="M5.19416 13.196C5.73149 12.5027 6.39016 11.9653 7.17016 11.584C7.95016 11.2027 8.75616 11.012 9.58816 11.012C12.1535 11.012 13.4362 12.364 13.4362 15.068V25H11.2522V15.094C11.2522 14.2793 11.0615 13.69 10.6802 13.326C10.2988 12.9447 9.69216 12.754 8.86016 12.754C8.14949 12.754 7.46482 12.9793 6.80616 13.43C6.14749 13.8807 5.61016 14.4093 5.19416 15.016V25H3.01016V5.812L5.19416 5.578V13.196ZM23.28 23.492C24.32 23.492 25.1433 23.2927 25.75 22.894C26.3567 22.4953 26.66 21.9667 26.66 21.308C26.66 20.8573 26.582 20.4933 26.426 20.216C26.27 19.9213 25.958 19.6613 25.49 19.436C25.022 19.1933 24.3113 18.9507 23.358 18.708C21.7633 18.3093 20.5847 17.8327 19.822 17.278C19.0593 16.706 18.678 15.8653 18.678 14.756C18.678 13.612 19.1547 12.702 20.108 12.026C21.0613 11.35 22.318 11.012 23.878 11.012C25.7847 11.012 27.4487 11.5147 28.87 12.52L27.882 14.028C27.31 13.6293 26.712 13.326 26.088 13.118C25.464 12.8927 24.7447 12.78 23.93 12.78C21.954 12.78 20.966 13.378 20.966 14.574C20.966 14.99 21.07 15.328 21.278 15.588C21.5033 15.848 21.8587 16.082 22.344 16.29C22.8467 16.4807 23.592 16.7147 24.58 16.992C26.0707 17.3907 27.18 17.902 27.908 18.526C28.6533 19.1327 29.026 20.0253 29.026 21.204C29.026 22.5733 28.4713 23.596 27.362 24.272C26.2527 24.948 24.892 25.286 23.28 25.286C21.1307 25.286 19.3453 24.6707 17.924 23.44L19.146 22.01C19.7007 22.4607 20.3333 22.8247 21.044 23.102C21.7547 23.362 22.5 23.492 23.28 23.492Z" fill="#569CD6"></path>
</svg><style>@media (prefers-color-scheme: light) { :root { filter: none; } }
@media (prefers-color-scheme: dark) { :root { filter: none; } }
</style></svg>